<svg width="256" height="256" viewBox="0 0 256 256" xmlns="http://www.w3.org/2000/svg">
  <g fill="none">
    <path fill="#E76F00" d="M128 0l128 128-128 128-128-128z"/>
    <path fill="white" d="M128 24l100 100-100 100-100-100z"/>
    <path fill="#5382A1" d="M98 160c-12 4-24 8-28 16-8 12 2 24 16 32 20 12 50 14 74 12 8 0 24-4 24-12 0-4-8-10-16-14-8-4-18-6-26-10-18-6-26-14-30-24-6-14-4-30 4-44 8-14 26-24 40-34l18 12c-8 8-18 14-26 22-14 12-20 28-12 42 6 10 18 14 30 18 12 4 26 8 36 18 10 10 14 24 4 38-8 12-26 18-40 20-18 2-40 2-58-2-14-4-32-10-40-22-10-12-10-30-6-44h28c-4 14 0 30 12 38 10 6 26 8 42 8s30-2 42-8c10-6 16-18 14-30-2-12-10-22-22-28-12-6-26-8-38-10-10-2-22-4-28-12-6-8-8-18-6-28 2-10 10-18 18-24l18 12c-8 6-14 12-16 20-2 8 0 16 6 22s16 8 24 10c12 4 26 6 38 14s18 20 18 34c0 16-10 30-24 38-16 8-36 10-54 10s-38-2-54-10c-14-8-24-22-24-38 0-12 4-24 12-34l18 12c-6 8-8 16-8 24z"/>
  </g>
</svg>
