<svg width="256" height="256" viewBox="0 0 256 256" xmlns="http://www.w3.org/2000/svg">
  <g fill="none">
    <rect width="256" height="256" fill="#3776AB"/>
    <path fill="#FFF" d="M128 40c22 0 32 4 40 8 10 4 12 8 16 16 4 6 4 18 4 40h-80v8h88c16 0 32 12 32 32v64c0 20-12 36-28 40-12 4-24 8-44 8s-44-2-60-10c-16-6-24-16-24-28v-36h40v8c0 8 8 12 16 12h48c6 0 10-4 10-12v-28c0-8-4-12-10-12H128c-22 0-36-4-48-8s-18-12-24-20-8-18-8-40c0-16 4-30 12-40 8-10 20-16 36-20 14-4 28-4 48-4zM96 56c-6 0-10 4-10 10s4 10 10 10 10-4 10-10-4-10-10-10z"/>
  </g>
</svg>
