<svg width="16" height="16" viewBox="0 0 16 16" fill="none" xmlns="http://www.w3.org/2000/svg">
  <path fill-rule="evenodd" clip-rule="evenodd" 
    d="M8 0C3.58 0 0 3.58 0 8C0 11.54 2.29 14.63 5.47 15.84C5.88 15.91 6.04 15.68 6.04 15.49C6.04 15.32 6.03 14.88 6.03 14.38C4 14.88 3.48 13.73 3.48 13.73C3.13 12.92 2.62 12.69 2.62 12.69C1.87 12.24 2.67 12.26 2.67 12.26C3.49 12.31 3.92 13.11 3.92 13.11C4.65 14.36 5.91 14.02 6.37 13.81C6.44 13.26 6.67 12.89 6.92 12.69C5.04 12.49 3.06 11.75 3.06 8.38C3.06 7.42 3.39 6.67 3.94 6.07C3.86 5.86 3.56 4.94 4.04 3.71C4.04 3.71 4.74 3.48 6.04 4.58C6.73 4.39 7.47 4.29 8.21 4.29C8.95 4.29 9.69 4.39 10.38 4.58C11.68 3.48 12.38 3.71 12.38 3.71C12.86 4.94 12.56 5.86 12.48 6.07C13.03 6.67 13.36 7.42 13.36 8.38C13.36 11.76 11.38 12.48 9.5 12.69C9.8 12.91 10.06 13.36 10.06 14.05C10.06 15.02 10.05 15.86 10.05 15.49C10.05 15.68 10.21 15.91 10.62 15.84C13.81 14.63 16.1 11.54 16.1 8C16.1 3.58 12.42 0 8 0Z" 
    fill="white"/>
</svg>
